/vscmnt/brussel_pixiu_data/_data_brussel/112/vsc11236/PredSimResults/SUBJ06mtu3D/weighted-LRposFixed/expIG/worker_04.mot
version=1
nRows=6
nColumns=50
inDegrees=yes
endheader
                time	         pelvis_tilt	         pelvis_list	     pelvis_rotation	           pelvis_tx	           pelvis_ty	           pelvis_tz	       hip_flexion_r	     hip_adduction_r	      hip_rotation_r	        knee_angle_r	       ankle_angle_r	         mtp_angle_r	       hip_flexion_l	     hip_adduction_l	      hip_rotation_l	        knee_angle_l	       ankle_angle_l	         mtp_angle_l	    lumbar_extension	      lumbar_bending	     lumbar_rotation	 ercspn_r/activation	 intobl_r/activation	 extobl_r/activation	    abd_r/activation	    add_r/activation	hamstrings_r/activation	bifemsh_r/activation	glut_max_r/activation	iliopsoas_r/activation	rect_fem_r/activation	  vasti_r/activation	gastroc_r/activation	 soleus_r/activation	tib_ant_r/activation	 ercspn_l/activation	 intobl_l/activation	 extobl_l/activation	    abd_l/activation	    add_l/activation	hamstrings_l/activation	bifemsh_l/activation	glut_max_l/activation	iliopsoas_l/activation	rect_fem_l/activation	  vasti_l/activation	gastroc_l/activation	 soleus_l/activation	tib_ant_l/activation	
          2.00000002	         -9.73724756	          3.10854960	         -4.56207748	          2.22000002	          0.95567540	          0.00163635	         29.43750888	         -0.03495763	          3.86065119	        -26.58273480	         11.14931194	          1.12840245	          6.40706002	          6.37385532	         -1.95485478	        -16.90341135	          5.53406364	         27.09308568	         -4.44275355	         -0.50417961	         -4.60819850	          0.22049763	          0.01866337	          0.02857747	          0.01459508	          0.13539431	          0.31434015	          0.03028429	          0.00999999	          0.03994159	          0.03694415	          0.00999999	          0.01333332	          0.01411808	          0.34472041	          0.09085976	          0.18197093	          0.00999999	          0.04213988	          0.03160491	          0.03160491	          0.00999999	          0.05232689	          0.63291657	          0.00999999	          0.01585976	          0.33765919	          0.18385993	          0.00999999	
          2.02000002	         -9.44933635	          3.35529845	         -5.21184551	          2.24351943	          0.95373789	          0.00341691	         28.32548639	          0.39113867	          4.60781688	        -24.41668008	          9.27784606	          0.86913297	          7.09120301	          6.57527219	         -2.71065789	        -21.47195715	          5.49615950	         29.72553046	         -4.43874903	         -0.45568227	         -4.46121414	          0.16537323	          0.01399753	          0.02143311	          0.01094631	          0.14401831	          0.23575511	          0.02271322	          0.03292163	          0.02995619	          0.02770812	          0.16575091	          0.00999999	          0.01058856	          0.28012729	          0.11808339	          0.26257416	          0.00999999	          0.03160491	          0.02370368	          0.02370368	          0.08242462	          0.03924517	          0.61173808	          0.00999999	          0.01189482	          0.29125550	          0.16299819	          0.00999999	
          2.04000002	         -9.14431103	          3.52726460	         -5.70346922	          2.26688082	          0.95090628	          0.00511294	         27.07022134	          0.56751172	          5.63830106	        -25.28469242	          9.81221547	          1.39717117	          9.15685932	          6.62607404	         -3.32343616	        -28.57923739	          5.09883478	         32.24810231	         -4.45659098	         -0.40678693	         -4.17908642	          0.12402992	          0.01049815	          0.01607483	          0.16235463	          0.10801373	          0.17681633	          0.01703492	          0.02469123	          0.02246714	          0.02078109	          0.26196569	          0.07930487	          0.11374148	          0.21009547	          0.15061377	          0.19693062	          0.00999999	          0.02370368	          0.01777776	          0.01777776	          0.11813164	          0.02943388	          0.46087607	          0.00999999	          0.00999999	          0.21844163	          0.12541277	          0.10867779	
          2.06000002	         -8.87206398	          3.50430677	         -6.14157196	          2.28987273	          0.94793293	          0.00678001	         25.10904634	          0.64173764	          6.16611073	        -25.19937188	         11.60014277	          3.13802030	         12.24125946	          6.38984759	         -3.82858894	        -37.33932616	          4.47513898	         32.06930343	         -4.48810419	         -0.21925111	         -3.71556508	          0.09302244	          0.02784981	          0.01205612	          0.23632109	          0.08101030	          0.13261225	          0.01277619	          0.12749740	          0.01685036	          0.11075915	          0.24692340	          0.12555757	          0.18370341	          0.15757160	          0.21511285	          0.14769796	          0.12774393	          0.01777776	          0.01333332	          0.01333332	          0.16129613	          0.02207541	          0.34565705	          0.12894492	          0.00999999	          0.16383122	          0.09405958	          0.17437001	
          2.08000002	         -8.66054126	          3.32425471	         -6.57644048	          2.31192907	          0.94582463	          0.00852903	         23.17089957	          0.81816555	          6.47002606	        -24.94365331	         13.19964423	          5.11480497	         15.82730942	          5.87003756	         -4.50140380	        -46.31929673	          3.50927286	         28.20129449	         -4.58310402	          0.04130348	         -3.16950338	          0.06976683	          0.02088736	          0.00999999	          0.29136283	          0.06075772	          0.09945919	          0.00999999	          0.14764751	          0.01263777	          0.08306936	          0.23580769	          0.16681693	          0.23587280	          0.11817870	          0.21158455	          0.11077347	          0.14926810	          0.01333332	          0.00999999	          0.00999999	          0.19177885	          0.01655656	          0.25924279	          0.37121703	          0.00999999	          0.12287341	          0.07054468	          0.31432691	
          2.10000002	         -8.52466859	          3.13979238	         -7.00643347	          2.33324806	          0.94492270	          0.01033352	         21.48787884	          0.99690136	          6.71205430	        -24.81065504	         14.18933283	          7.08470047	         19.29015738	          5.17079018	         -5.39725198	        -53.88701328	          3.62346822	         22.09584580	         -4.69716843	          0.20576510	         -2.63081900	          0.05232512	          0.01566552	          0.00999999	          0.28593246	          0.04556829	          0.07459439	          0.00999999	          0.13940707	          0.00999999	          0.06230202	          0.23289949	          0.19859277	          0.26897493	          0.08863402	          0.15868841	          0.11879860	          0.13134610	          0.00999999	          0.00999999	          0.00999999	          0.25434325	          0.01241742	          0.19824365	          0.52505407	          0.00999999	          0.09215506	          0.05290851	          0.33771796	
